PathFileType	4	(X/Y/Z)	Patient4_TMGait_0pt4_02_left_40.trc.trc
DataRate	CameraRate	NumFrames	NumMarkers	Units	OrigDataRate	OrigDataStartFrame	OrigNumFrames
79.545454545455	79.545454545455	4	33	mm	79.545454545455	1	       141
Frame#	Time	Sacral			L.Shoulder			Chest			R.Shoulder			Neck			R.ASIS			L.ASIS			R.Thigh.Superior			R.Thigh.Lateral			R.Thigh.Inferior			R.Patella			L.Thigh.Superior			L.Thigh.Lateral			L.Thigh.Inferior			L.Patella			L.Shank.Superior			L.Shank.Lateral			L.Shank.Inferior			R.Shank.Superior			R.Shank.Lateral			R.Shank.Inferior			R.Heel			R.Midfoot.Superior			R.Midfoot.Lateral			R.Toe			L.Heel			L.Midfoot.Lateral			L.Midfoot.Superior			L.Toe			L.Elbow			L.Wrist			R.Elbow			R.Wrist			
		X1	Y1	Z1	X2	Y2	Z2	X3	Y3	Z3	X4	Y4	Z4	X5	Y5	Z5	X6	Y6	Z6	X7	Y7	Z7	X8	Y8	Z8	X9	Y9	Z9	X10	Y10	Z10	X11	Y11	Z11	X12	Y12	Z12	X13	Y13	Z13	X14	Y14	Z14	X15	Y15	Z15	X16	Y16	Z16	X17	Y17	Z17	X18	Y18	Z18	X19	Y19	Z19	X20	Y20	Z20	X21	Y21	Z21	X22	Y22	Z22	X23	Y23	Z23	X24	Y24	Z24	X25	Y25	Z25	X26	Y26	Z26	X27	Y27	Z27	X28	Y28	Z28	X29	Y29	Z29	X30	Y30	Z30	X31	Y31	Z31	X32	Y32	Z32	X33	Y33	Z33	

1	53.400000000000	825.088715572054	999.490615371145	549.903763108505	984.342722531350	1428.855763409206	352.353242631215	1099.489754698588	1365.768372828048	507.417280614414	1028.477934087043	1440.188038909045	686.228454172752	977.500583350705	1494.275375173056	509.212583694318	1060.195311735554	943.293490061441	656.667218063529	1032.299951662694	963.666141286941	382.816000118540	1102.716747647272	742.396866153041	626.703260942189	1022.676101371490	632.209413802573	688.191321126557	1099.098295925536	581.295162268045	607.475673179980	1098.751415676147	492.259721076929	613.249025238389	1121.983766379613	783.042459161880	402.551654506259	1073.991147010498	656.508725117002	321.345304937687	1183.586647476068	597.964654712819	371.569228206773	1201.681482206087	514.903977017304	363.553097069308	1150.544590608572	441.063259074109	353.319928007930	1022.823542737023	366.811572951973	304.545455611228	1047.466195651953	234.515332111620	350.417544486277	1068.823889046962	402.334045313039	619.259627821888	995.105113440501	299.880949044608	680.089397855220	1032.911623718361	204.475048512843	615.575591158759	895.243442612408	42.795707359797	585.244826923126	1065.566493879662	96.950790196252	621.533271943295	978.367402610901	36.536518585452	661.124636169525	1186.330052729172	46.003872405212	650.448907966054	883.692757030304	117.927223450362	388.596538422848	946.759075487391	96.484052294611	302.601047933012	1047.273922983181	130.687802770411	322.443509064935	1150.512848748776	46.794441645747	280.201552509233	940.404984029099	1078.297500699604	237.405661269744	1103.030398756929	870.538247212126	226.489075063925	1060.881150324364	1096.465993124487	819.608969852772	1262.551978292585	936.880813710985	778.640461849288	
2	53.412571428571	824.466384335078	1000.242520188774	551.724319311396	982.969038788431	1429.270753075920	353.400732953262	1099.418030540640	1365.774735528235	507.289951036267	1030.312181182651	1440.379881644366	686.756355160159	977.824223710506	1494.534154749381	510.285089616151	1060.177676254729	943.336618432207	656.253232451779	1030.137336116848	964.349245867811	382.583049892913	1100.197816643344	741.903414336805	625.629309948462	1019.967484007798	632.236246236444	688.235648074308	1095.183035468053	580.773124413144	606.967023133929	1094.189347429361	491.932911267674	612.916299117143	1119.332776047773	783.551405563897	402.099016888505	1071.443108459984	657.169921460507	320.913012994164	1180.513406493507	598.474346316484	372.130951775754	1199.956003720909	517.527302109743	363.500517961010	1152.682998808002	443.658765502538	352.330460761927	1031.016568999141	362.169659118508	302.870389485713	1064.461594710018	232.180792121228	347.700183926413	1064.161726607373	402.107949945263	619.096435980793	990.378344237441	299.776531167652	680.021277652237	1027.805242784935	204.341040689746	615.478390895380	889.928091173278	42.764290691254	585.339474724184	1060.202521195901	96.895073481337	621.501514995246	973.001114862672	36.544982044751	661.133373756254	1180.973652325389	45.930655478287	650.394053503013	910.404103641513	105.432095370046	385.569754488458	973.876392194303	88.829870368958	299.194908287550	1071.331008935489	129.183735245186	318.973462938203	1178.918824056010	53.000273344073	275.876710463759	936.739145066925	1079.063336267399	238.263820637542	1093.927210675453	867.618730594463	224.390119732331	1068.159129867760	1097.711186807092	819.869215432313	1276.292501491953	951.575009278878	773.051650680251	
3	53.425142857143	823.846746677313	1000.985041438671	553.486284297012	981.641701572435	1429.679677601601	354.408101759087	1099.357865401292	1365.766378971539	507.141793259152	1032.123241896995	1440.542836506443	687.252367472330	978.152540331574	1494.779980911499	511.329085761187	1060.137993673414	943.354627842840	655.835597231663	1028.006631830548	964.980711354510	382.351624872371	1097.724559606852	741.401582851904	624.599904329723	1017.282915495111	632.255674107496	688.274743976277	1091.305888645013	580.249921730656	606.460807073113	1089.667873594340	491.606909688335	612.580532241061	1116.612114186436	783.941697400303	401.697245397404	1068.898390986016	657.822125465814	320.377925142350	1177.343143382946	598.904182471841	372.709615416718	1198.127518665155	520.089282322171	363.459614364711	1154.699774567297	446.236584053080	351.384665777627	1039.197893749165	357.678929529435	301.110326513419	1081.217723250933	230.099411363755	345.077495719014	1059.541978077769	401.881661974366	618.928354604526	985.697582642402	299.672832553049	679.953942716187	1022.747736923406	204.205838027686	615.378378767213	884.657582824389	42.732980281972	585.430271741137	1054.885013492891	96.840751583914	621.470168495426	967.683849539919	36.552603004487	661.142652786436	1175.664464554577	45.858741906865	650.343595856631	936.799392290562	93.503688786298	382.473956104760	1000.807201346410	81.582208770964	295.881762671094	1095.135123230541	127.960057842869	315.706445026589	1206.988833829518	59.368616917136	272.096836159196	933.134805914772	1079.822178942449	239.093823542549	1084.881121028784	864.733777731454	222.314117027504	1075.392438689303	1098.928594066578	820.063966576826	1289.774435220046	966.291226958345	767.427246770012	
4	53.437714285714	823.234820878924	1001.708738784270	555.123886864346	980.397611730606	1430.079577167835	355.330267201392	1099.316520558084	1365.734483996613	506.944440557556	1033.884999268918	1440.656405220816	687.676950831248	978.484088658785	1495.004417709884	512.306322316719	1060.062602564319	943.329394355852	655.399070751445	1025.941646896638	965.522611799257	382.106664641038	1095.329452024853	740.883251852953	623.634097467243	1014.639196369354	632.261440253382	688.291207143999	1087.493100676360	579.722971756789	605.948381370613	1085.214075487878	491.280985529429	612.230790689992	1113.800523381727	784.138027862702	401.370674435164	1066.368952648964	658.447909074711	319.671970795146	1174.039662740935	599.198214353947	373.294324116653	1196.146568163988	522.533002307450	363.432233634651	1156.497287668728	448.766736134283	350.520738121938	1047.292767913247	353.489382662932	299.227812277235	1097.420678526439	228.475574163402	342.650489171099	1054.990625371533	401.654790952772	618.744142054138	981.089287374955	299.572881036376	679.883760252171	1017.765799138724	204.069557074893	615.270160019617	879.452767517526	42.702203074390	585.515477916956	1049.638025432683	96.789680650077	621.439667308768	962.439601451261	36.558873597289	661.153092527195	1170.425585710928	45.788791783693	650.302185065825	962.428362502021	82.655448911292	379.317875588865	1027.173807250170	75.103810297473	292.773906801225	1118.293161821007	127.236431462172	312.821503574304	1234.226599488917	65.970316757619	269.261449606141	929.650819890148	1080.570643508417	239.858754016379	1075.928012295813	861.921738355673	220.276278944470	1082.560521166520	1100.109708568329	820.101351613786	1302.727116715731	981.095482320601	761.713830843170	
